<svg xmlns="http://www.w3.org/2000/svg" viewBox="0 0 512 512"><rect width="512" height="512" rx="96" fill="#12100d"/><path d="M256 74c-86 0-148 51-148 124 0 49 25 83 60 105v55h48v-40h80v40h48v-55c35-22 60-56 60-105 0-73-62-124-148-124Zm-58 167c-25 0-45-18-45-41s20-41 45-41 45 18 45 41-20 41-45 41Zm116 0c-25 0-45-18-45-41s20-41 45-41 45 18 45 41-20 41-45 41Zm-58 14 25 39h-50l25-39Z" fill="#e9c96b"/><path d="m105 405 302-96M105 309l302 96" stroke="#e9c96b" stroke-width="34" stroke-linecap="round"/></svg>
